# xmcd
#
# Track frame offsets:
#	150
#	10763
#	32361
#	51326
#	66641
#	81273
#	98753
#	109275
#	136930
#	150339
#	164289
#	180573
#	192634
#	204807
#
# Disc length: 2884 seconds
#
# Revision: 0
# Processed by: cddbd v1.4PL0 Copyright (c) Steve Scherf et al.
# Submitted via: EasyCDDAExtractor 5.0.4.1
#
DISCID=b40b420e
DTITLE=Glen Eddy Band - Shakin It Up
DYEAR=2000
DGENRE=Blues
TTITLE0=Midnight Walk
TTITLE1=I'm Gonna Rock You
TTITLE2=Shake It Up
TTITLE3=For The Ladies
TTITLE4=Cuz I
TTITLE5=Didn't Have To Rain
TTITLE6=She's My Lover
TTITLE7=Samething
TTITLE8=Girl Like You
TTITLE9=One Eyed Man
TTITLE10=Standing On My Feet
TTITLE11=Travilin' South
TTITLE12=I Don't Know About That (Bonus Track)
TTITLE13=I've Seen Sunshine (Bonus Track)
EXTD=
EXTT0=
EXTT1=
EXTT2=
EXTT3=
EXTT4=
EXTT5=
EXTT6=
EXTT7=
EXTT8=
EXTT9=
EXTT10=
EXTT11=
EXTT12=
EXTT13=
PLAYORDER=
